<svg xmlns="http://www.w3.org/2000/svg" width="24" height="24" viewBox="0 0 24 24">
    <!-- White circle background -->
    <circle cx="12" cy="12" r="12" fill="white" />
    <!-- Group the icon paths and scale them toward the center -->
    <g transform="translate(12,12) scale(0.6) translate(-12,-12)">
        <path d="M10 2v2" fill="none" stroke="#09090b" stroke-width="2" stroke-linecap="round"
            stroke-linejoin="round" />
        <path d="M14 2v2" fill="none" stroke="#09090b" stroke-width="2" stroke-linecap="round"
            stroke-linejoin="round" />
        <path d="M16 8a1 1 0 0 1 1 1v8a4 4 0 0 1-4 4H7a4 4 0 0 1-4-4V9a1 1 0 0 1 1-1h14a4 4 0 1 1 0 8h-1" fill="none"
            stroke="#09090b" stroke-width="2" stroke-linecap="round" stroke-linejoin="round" />
        <path d="M6 2v2" fill="none" stroke="#09090b" stroke-width="2" stroke-linecap="round" stroke-linejoin="round" />
    </g>
</svg>